<?xml version="1.0" standalone="no"?>
<!DOCTYPE svg PUBLIC "-//W3C//DTD SVG 20010904//EN"
 "http://www.w3.org/TR/2001/REC-SVG-20010904/DTD/svg10.dtd">
<svg version="1.0" xmlns="http://www.w3.org/2000/svg"
 width="587.000000pt" height="612.000000pt" viewBox="0 0 587.000000 612.000000"
 preserveAspectRatio="xMidYMid meet">
<metadata>
Created by potrace 1.16, written by Peter Selinger 2001-2019
</metadata>
<g transform="translate(0.000000,612.000000) scale(0.100000,-0.100000)"
fill="#000000" stroke="none">
<path d="M4443 6110 c-304 -43 -501 -198 -594 -467 -10 -31 -19 -65 -19 -75 0
-11 -15 -59 -32 -107 l-33 -88 -72 -37 c-65 -34 -96 -62 -170 -150 -12 -14
-20 -26 -18 -26 2 0 -5 -25 -16 -55 -10 -30 -19 -66 -19 -80 0 -15 -4 -24 -8
-21 -9 6 -5 -48 10 -126 6 -32 15 -58 19 -58 5 0 9 -4 9 -10 0 -23 -21 -7 -27
20 -5 28 -7 29 -20 13 -8 -10 -12 -13 -8 -6 3 7 3 24 -1 38 l-6 25 -198 0
c-149 0 -200 -3 -203 -12 -3 -7 -6 -3 -6 10 -1 36 -21 25 -21 -11 0 -70 13
-187 21 -187 5 0 6 7 3 15 -4 8 -3 26 0 40 9 36 29 20 22 -17 -3 -18 -2 -27 4
-23 6 3 10 13 10 21 0 8 5 14 11 14 7 0 17 7 24 17 7 9 17 13 23 9 7 -4 -2
-19 -23 -41 l-34 -34 36 6 c23 4 34 2 30 -4 -4 -6 38 -12 116 -17 67 -3 164
-9 215 -13 l92 -6 -4 24 c-2 13 -9 23 -16 21 -6 -1 -8 3 -5 9 5 7 20 -1 42
-23 l34 -33 -47 -15 c-65 -20 -111 -66 -120 -118 -6 -36 -10 -41 -28 -37 -11
2 -86 7 -166 10 -80 3 -169 8 -199 12 l-53 6 6 -194 c3 -107 8 -241 11 -299 3
-58 7 -229 11 -380 3 -151 7 -276 8 -277 1 -1 123 8 271 20 257 21 270 23 268
42 -2 11 -5 58 -9 105 -3 47 -11 144 -18 215 l-13 130 5 -232 5 -233 -26 0
c-22 0 -26 4 -24 28 1 15 7 30 12 34 6 4 -14 8 -44 8 l-54 0 6 -34 c7 -44 5
-45 -198 -52 l-160 -6 -1 50 c0 28 3 49 8 46 4 -3 8 5 8 18 0 18 -2 20 -10 8
-11 -17 -7 511 4 570 5 28 4 30 -4 13 -13 -31 -15 -29 -16 12 0 22 3 30 7 23
5 -8 7 2 5 23 -2 20 -6 41 -10 48 -4 6 -1 11 9 11 15 0 15 2 -1 18 -17 16 -14
17 67 20 46 2 85 -1 87 -6 1 -4 31 -6 65 -4 l63 4 34 -361 35 -362 45 3 c25 2
43 7 42 12 -2 5 2 13 10 17 8 5 -7 9 -39 9 -46 0 -53 3 -53 20 0 18 7 20 58
21 31 1 50 3 40 6 -13 3 -17 26 -23 141 -4 75 -8 192 -9 258 -1 67 -4 117 -8
110 -10 -15 -10 20 1 67 9 35 8 37 -18 38 -14 1 -32 1 -38 0 -8 -1 -13 9 -13
24 0 23 4 25 43 26 23 1 45 1 49 0 4 0 4 7 1 16 -4 11 -8 13 -11 5 -2 -7 -8
-12 -13 -12 -6 0 -8 4 -4 9 3 6 -10 13 -30 17 -24 4 -35 12 -35 24 0 10 6 18
13 17 44 -1 61 3 49 15 -15 15 -16 32 -2 23 14 -9 13 8 -2 23 -9 9 -9 12 2 11
8 0 24 -12 36 -27 17 -22 22 -47 27 -142 8 -133 16 -235 23 -267 4 -21 10 -23
70 -23 36 0 63 4 60 8 -3 5 -6 63 -7 130 l-1 121 -59 3 c-71 4 -74 22 -4 23
52 1 55 2 55 35 0 18 -7 20 -60 20 -33 0 -60 4 -60 9 0 5 66 11 148 14 154 5
228 20 274 57 26 20 58 89 78 166 19 77 87 66 125 -19 28 -64 81 -113 132
-124 90 -19 289 4 362 41 47 25 88 76 111 137 22 57 22 59 4 90 -38 64 -63 74
-194 77 -141 4 -244 -13 -356 -58 -71 -29 -88 -32 -174 -30 -52 1 -163 2 -247
3 l-151 2 -5 28 c-3 24 1 30 32 43 53 23 139 36 180 29 20 -4 56 -17 80 -31
59 -33 63 -24 6 19 -62 48 -124 62 -206 47 -35 -7 -71 -16 -81 -21 -16 -9 -18
-4 -18 49 l0 59 123 6 c201 10 422 73 570 161 77 46 188 152 244 234 l38 54
18 -92 c23 -118 30 -135 117 -270 88 -137 100 -165 107 -253 l6 -70 -31 6
c-32 6 -32 6 -32 -33 0 -35 3 -39 28 -42 18 -2 37 5 60 24 59 50 131 25 152
-53 29 -105 -58 -259 -145 -259 -32 0 -35 -2 -35 -30 0 -17 -11 -52 -24 -78
-13 -26 -27 -67 -30 -92 l-6 -45 88 90 c58 61 100 115 127 165 l40 75 3 -62 3
-63 64 0 63 0 4 -55 c2 -46 1 -54 -12 -49 -8 4 -39 9 -69 12 l-54 5 6 -189 c4
-104 7 -222 7 -261 l0 -73 64 0 c53 0 65 -3 69 -17 4 -15 5 -15 6 -2 1 12 8
15 26 11 18 -3 25 0 25 12 0 14 -29 22 -62 17 -4 0 -5 6 -2 14 4 8 2 15 -2 15
-5 0 -9 75 -10 168 l-1 167 10 -167 10 -168 26 0 26 0 -3 148 c-2 81 -6 174
-10 207 -11 96 -6 123 26 128 16 2 7 5 -21 6 -40 1 -48 4 -45 18 2 10 12 19
23 21 36 7 41 22 7 22 -25 0 -32 4 -32 20 0 14 7 20 24 20 20 0 23 4 19 23 -6
22 -6 21 16 -3 21 -24 21 -24 -2 20 -15 28 -31 45 -43 46 -70 4 -154 17 -154
24 0 5 7 37 16 72 14 53 33 85 126 208 124 165 168 247 205 387 36 136 38 321
5 437 -30 105 -90 219 -153 289 -111 125 -311 246 -474 287 -92 24 -252 33
-342 20z m-37 -1395 c-40 -14 -90 -56 -108 -90 -7 -12 5 -5 30 17 37 33 94 58
132 58 11 -1 9 -4 -5 -12 -27 -15 -35 -28 -35 -58 0 -64 75 -95 120 -50 33 33
21 92 -23 110 -16 6 -18 9 -5 9 35 2 68 -20 87 -56 l19 -38 8 30 c11 43 7 68
-12 82 -16 12 -16 13 4 13 61 0 97 -86 72 -175 -24 -87 -113 -128 -280 -129
-117 -1 -159 16 -196 80 -67 114 -35 172 113 208 32 8 72 15 88 15 29 0 29 0
-9 -14z m-426 -83 c30 -23 38 -83 20 -148 -24 -85 -96 -122 -251 -131 l-96 -6
14 64 c7 35 16 80 19 99 14 85 37 110 119 125 l40 7 -27 -22 c-38 -29 -39 -80
-2 -109 35 -27 59 -26 89 4 30 29 32 68 5 95 -11 11 -17 20 -14 20 14 0 74
-42 74 -52 0 -6 3 -8 7 -5 9 10 -37 57 -72 74 l-30 14 40 -5 c22 -3 51 -14 65
-24z"/>
<path d="M1892 5444 c-12 -8 -22 -22 -22 -31 0 -14 3 -13 25 1 18 12 37 15 63
11 29 -4 33 -3 17 5 -18 9 -17 10 5 5 14 -2 35 -5 48 -5 12 0 22 -4 22 -8 0
-5 -13 -7 -30 -4 -27 4 -29 2 -24 -24 3 -21 2 -25 -5 -14 -5 8 -8 17 -6 21 3
4 -9 9 -27 13 -33 6 -78 -14 -78 -36 0 -6 9 -3 20 7 11 10 23 15 28 11 4 -4
-6 -19 -23 -32 -16 -13 -26 -24 -22 -24 5 0 20 9 34 20 15 11 29 18 32 14 6
-5 -16 -25 -47 -43 -12 -7 -9 -36 12 -165 19 -116 23 -163 15 -183 -5 -14 -7
-28 -4 -31 3 -3 5 1 5 9 1 31 19 -18 26 -69 6 -47 5 -52 -12 -52 -16 0 -17 -2
-4 -10 10 -7 11 -12 4 -17 -6 -5 -13 -15 -17 -25 -4 -12 0 -15 19 -13 13 1 24
-2 24 -7 0 -5 9 -4 19 2 26 13 52 14 31 0 -12 -7 -8 -10 15 -10 17 0 127 -7
245 -15 118 -8 215 -13 216 -12 0 1 -24 153 -55 337 l-57 335 -54 7 c-56 7
-410 48 -414 48 -1 0 -12 -7 -24 -16z m313 -179 c71 -9 130 -17 130 -18 7 -12
46 -299 42 -303 -3 -4 -62 1 -131 10 -69 9 -132 16 -139 16 -10 0 -20 39 -36
133 -13 72 -25 142 -28 155 -6 27 -9 27 162 7z"/>
<path d="M2060 5263 c0 -4 10 -69 22 -144 l22 -136 130 -15 c72 -8 132 -14
133 -13 3 2 -46 277 -49 280 -2 1 -52 8 -113 14 -60 7 -118 15 -127 17 -10 3
-18 2 -18 -3z m142 -24 c57 -6 105 -13 107 -15 2 -2 13 -60 25 -129 17 -96 19
-125 9 -125 -36 0 -219 23 -225 29 -3 3 -14 49 -22 101 -9 52 -19 107 -22 123
-7 32 -13 31 128 16z"/>
<path d="M2915 5270 c2 -30 12 -156 20 -280 20 -293 20 -290 51 -290 23 0 24
2 18 53 -3 28 -9 97 -13 152 l-8 100 -3 -70 c-2 -38 -5 -54 -7 -35 -27 282
-38 370 -50 395 -13 29 -13 28 -8 -25z"/>
<path d="M4443 4890 c-53 -11 -97 -33 -151 -77 -73 -60 -70 -78 5 -28 37 25
85 50 108 56 88 24 233 -5 274 -55 16 -18 31 -21 31 -5 0 24 -46 73 -84 89
-52 23 -129 31 -183 20z"/>
<path d="M1680 4445 c0 -80 4 -145 9 -145 4 0 32 5 61 10 30 6 58 6 64 1 6 -4
44 -5 86 0 41 4 120 13 175 19 112 12 345 25 345 19 0 -2 3 -74 6 -159 10
-312 22 -845 19 -849 -2 -2 -54 -6 -115 -10 -81 -4 -110 -3 -110 6 0 6 6 14
13 16 6 3 0 6 -15 6 -16 1 -28 6 -28 11 0 6 12 11 28 11 25 2 26 2 3 6 -13 3
-31 11 -38 19 -12 12 -9 14 24 16 37 1 37 1 6 5 -36 5 -46 23 -12 23 20 0 20
3 12 133 -9 145 -11 357 -3 427 2 27 10 48 20 52 9 4 0 7 -22 7 -53 1 -59 21
-6 23 l43 1 -37 4 c-28 3 -38 9 -38 22 0 9 -4 21 -10 27 -6 6 10 8 43 7 l52
-1 -47 7 c-69 10 -70 21 -2 22 32 0 52 3 44 6 -8 3 -22 12 -31 20 -9 7 -31 12
-48 11 l-33 -2 6 -76 c3 -41 8 -243 12 -447 l7 -373 -32 0 c-36 0 -40 13 -8
28 17 8 9 9 -37 5 -48 -5 -58 -3 -54 8 3 8 23 16 49 19 33 4 39 7 25 13 -19 7
-19 8 0 22 17 13 15 14 -28 15 -56 0 -65 17 -12 22 l37 3 2 128 2 127 -43 0
c-24 0 -44 5 -44 10 0 6 24 10 53 11 28 0 45 3 37 7 -17 8 -20 33 -5 44 6 5 5
8 -2 8 -7 0 -13 5 -13 11 0 5 5 7 10 4 6 -3 10 -1 10 4 0 6 -6 11 -12 12 -7 0
-4 4 7 9 15 6 6 9 -32 9 -29 1 -53 6 -53 11 0 6 23 10 51 10 31 0 48 4 44 10
-4 6 -9 8 -13 6 -12 -7 -4 215 9 230 10 12 3 14 -46 14 -40 0 -55 4 -53 12 3
8 21 11 50 9 25 -1 49 2 53 8 3 6 -2 11 -12 11 -17 1 -17 1 0 11 28 17 10 29
-44 29 -27 0 -49 5 -49 10 0 6 25 10 55 10 32 0 55 4 55 11 0 5 -5 7 -12 3 -8
-5 -9 -2 -4 11 6 17 -1 18 -130 12 -75 -3 -138 -8 -141 -10 -2 -3 31 -166 72
-363 116 -546 116 -546 113 -549 -2 -1 -32 -9 -68 -17 -81 -19 -140 -14 -133
12 5 18 -27 223 -54 348 -8 40 -13 86 -11 102 2 16 1 27 -4 24 -4 -3 -8 5 -8
18 0 13 -7 55 -15 93 -9 39 -18 122 -21 185 -2 63 -7 116 -10 119 -3 3 -2
-179 3 -404 4 -226 7 -440 6 -477 l-2 -68 32 0 c36 0 399 29 802 65 217 19
245 23 140 20 -80 -3 -120 -1 -105 4 14 5 18 10 10 10 -13 1 -13 2 0 12 11 8
-3 9 -52 5 -39 -4 -68 -3 -68 3 0 14 27 21 79 21 36 0 48 4 48 15 0 8 -4 15
-9 15 -4 0 -8 -5 -8 -12 0 -6 -3 -8 -7 -4 -5 4 1 14 11 22 18 13 13 14 -47 14
-83 0 -88 15 -7 24 l60 7 0 114 c0 72 -4 116 -11 121 -8 5 -8 8 0 13 6 4 -19
5 -54 3 -44 -3 -65 -1 -65 7 0 7 22 11 59 11 l60 0 0 55 0 55 -60 0 c-33 0
-59 4 -59 10 0 6 29 10 66 10 36 0 63 4 60 8 -3 5 -6 63 -7 130 l-2 122 -64 0
c-82 0 -82 18 0 22 56 3 62 5 59 23 -5 28 -20 35 -74 35 -27 0 -48 4 -48 8 0
8 199 20 390 23 41 1 65 4 54 6 -27 5 -37 45 -18 71 7 10 15 36 17 58 3 33 4
32 3 -9 -1 -62 19 -62 23 0 1 26 8 51 14 55 7 5 1 8 -15 8 -16 0 -28 5 -28 10
0 6 12 10 26 10 16 0 23 4 18 11 -3 6 -17 9 -31 6 -37 -7 -16 7 30 20 l42 11
-40 1 c-22 1 -145 8 -275 16 -314 20 -919 55 -947 55 -23 0 -23 -1 -23 -145z"/>
<path d="M4165 4145 c-15 -12 -40 -16 -105 -14 -69 1 -96 -3 -147 -22 -34 -14
-65 -28 -69 -31 -3 -4 28 -52 71 -107 93 -122 121 -137 243 -128 127 8 175 42
252 177 66 116 66 116 -20 11 -78 -94 -130 -116 -282 -116 l-117 0 -36 35
c-49 47 -99 110 -92 116 3 3 56 8 119 10 159 6 310 22 398 43 l75 18 -45 6
c-25 4 -85 9 -135 12 -73 5 -94 3 -110 -10z"/>
<path d="M2845 3858 c4 -161 11 -297 15 -302 5 -5 16 -6 25 -2 14 5 15 9 5 21
-8 10 -12 73 -13 209 -1 107 -6 189 -10 182 -5 -6 -7 12 -4 41 2 32 0 54 -7
57 -6 2 -2 5 8 5 20 1 20 1 0 16 -14 11 -15 14 -4 15 13 0 13 1 0 10 -11 7
-11 10 -2 10 8 0 10 5 6 12 -5 8 -2 9 10 5 10 -4 15 -3 11 3 -3 6 -15 10 -27
10 -20 0 -20 -2 -13 -292z"/>
<path d="M3564 3770 c3 -30 9 -90 12 -133 l7 -78 46 7 c54 8 61 12 41 24 -8 6
-10 10 -4 10 8 0 12 36 12 116 l1 115 -61 -3 -60 -3 6 -55z"/>
<path d="M3988 3600 l3 -140 -23 -1 c-13 0 -85 -6 -161 -12 -76 -7 -140 -10
-143 -8 -3 3 6 11 18 18 21 11 17 12 -34 13 -59 0 -69 -8 -49 -39 9 -14 102
-10 416 19 50 4 92 6 94 4 2 -2 -43 -26 -100 -53 -102 -48 -107 -49 -251 -61
l-147 -13 14 -26 c7 -14 28 -40 47 -57 60 -57 120 -77 224 -76 81 2 114 15
114 45 0 43 61 145 122 203 32 30 61 66 64 80 5 21 3 24 -20 24 -37 0 -33 26
5 34 17 3 36 6 41 6 10 0 7 -30 -7 -63 -7 -18 -5 -18 32 2 43 21 45 25 59 139
4 28 3 52 -1 52 -4 0 -21 -10 -38 -22 -23 -17 -46 -23 -84 -23 l-52 0 5 -87 5
-88 -61 0 c-37 0 -60 4 -60 11 0 6 7 8 16 5 8 -3 12 -2 9 3 -3 5 3 12 12 14
10 3 1 5 -20 6 -41 1 -43 21 -2 21 13 0 26 4 29 9 4 5 -4 7 -16 4 -13 -3 -19
-1 -13 4 20 17 15 33 -11 33 -43 0 -22 24 27 31 33 5 37 6 14 8 -23 1 -27 3
-15 11 13 8 12 10 -2 10 -10 0 -18 5 -18 11 0 6 7 8 17 5 15 -6 14 -4 -2 14
-19 20 -19 21 1 15 12 -4 7 4 -16 24 -19 17 -37 31 -40 31 -3 0 -4 -63 -2
-140z"/>
<path d="M4842 3561 c28 -24 39 -43 43 -75 9 -55 -10 -121 -46 -167 -30 -38
-36 -73 -23 -138 13 -64 27 -37 84 160 23 78 40 155 38 172 -4 37 -39 65 -93
74 l-40 6 37 -32z"/>
<path d="M4962 3516 c-3 -39 -92 -339 -108 -363 -22 -35 -42 -28 -49 15 -4 20
-9 49 -11 64 l-5 27 -67 -51 c-80 -61 -170 -104 -324 -153 -62 -20 -122 -40
-134 -45 -15 -6 -31 -35 -55 -99 l-33 -91 -48 0 -48 0 0 73 c0 71 -3 81 -47
148 -13 19 -26 55 -29 80 l-6 47 -37 -10 c-47 -14 -166 -4 -215 17 -58 25
-104 63 -131 110 -21 35 -29 41 -52 38 -16 -1 -138 -12 -273 -24 -135 -11
-247 -22 -249 -25 -4 -4 -2 -167 3 -171 2 -2 49 -10 105 -17 56 -7 105 -16
109 -21 4 -4 -11 -5 -33 -2 -22 4 -73 9 -114 13 l-74 6 6 -203 c4 -112 10
-328 13 -480 l7 -276 61 13 c153 34 299 64 307 64 5 0 9 -19 9 -42 l0 -43
-153 -34 c-186 -42 -220 -51 -214 -57 2 -3 75 -18 162 -35 177 -34 184 -33
231 28 23 30 27 32 38 18 11 -15 18 -14 81 9 39 14 77 34 86 44 8 11 20 60 27
113 13 100 58 211 94 230 20 11 20 11 19 -81 -1 -65 19 -159 43 -195 25 -38
85 -73 144 -85 28 -5 213 -26 409 -46 197 -20 359 -37 359 -38 1 0 -10 -48
-24 -104 -24 -98 -25 -109 -14 -206 6 -56 14 -109 17 -118 5 -13 -55 4 -246
69 -212 72 -266 86 -335 91 -59 3 -94 0 -125 -11 -303 -106 -364 -129 -371
-140 -4 -6 -8 -7 -8 -2 0 6 -17 10 -37 10 -31 0 -40 5 -51 28 -8 16 -27 33
-43 39 -19 7 -31 19 -35 36 -9 42 -14 55 -19 50 -3 -2 3 -45 11 -94 24 -128
23 -323 -1 -473 -18 -114 -21 -124 -45 -133 -18 -8 -36 -6 -67 5 l-43 15 0
-32 c0 -30 -3 -33 -52 -45 -29 -8 -57 -17 -63 -21 -28 -20 -44 -19 -43 3 1 12
6 28 12 35 8 11 5 14 -14 12 -40 -4 -50 -1 -50 14 0 8 11 17 24 20 13 3 26 15
29 26 6 23 6 23 -27 10 -22 -8 -26 -7 -26 10 0 13 12 25 35 34 30 13 34 18 25
33 -14 25 -28 423 -15 423 6 0 6 3 0 8 -13 8 -13 22 -1 41 7 10 3 12 -15 6
-38 -12 -43 -11 -47 8 -2 12 6 21 28 28 19 7 29 16 26 25 -3 7 0 15 7 17 7 2
1 2 -13 0 -13 -3 -29 -5 -35 -6 -5 -1 -10 7 -10 17 0 13 11 23 35 31 30 10 32
13 16 22 -16 9 -16 13 -6 33 11 20 10 22 -5 17 -9 -4 -29 -7 -43 -7 l-27 0 6
-202 c6 -192 13 -564 10 -581 0 -4 -14 -1 -31 8 -16 8 -38 15 -49 15 -21 0
-171 -114 -171 -129 0 -19 -318 -236 -392 -268 -18 -8 -28 -9 -28 -2 0 5 10
14 23 19 18 7 19 9 4 9 -10 1 -28 -4 -39 -10 -15 -8 -22 -8 -28 1 -5 7 -19 11
-34 8 -14 -3 -26 -1 -26 3 0 5 -18 9 -39 9 -22 0 -41 4 -43 10 -5 16 -313 33
-340 19 -20 -10 -19 -8 5 15 15 14 33 26 40 26 7 0 6 4 -3 10 -8 5 -17 5 -20
0 -3 -4 -43 -30 -90 -58 -76 -44 -192 -116 -332 -205 -26 -16 -45 -33 -43 -37
9 -14 231 -119 347 -164 332 -130 649 -189 1021 -189 119 0 220 2 223 5 5 6
109 628 120 723 8 62 12 67 74 88 25 8 83 29 129 46 46 18 86 30 88 28 5 -5
-30 -188 -69 -356 -24 -109 -27 -135 -16 -142 7 -5 19 -7 26 -4 8 3 38 -2 67
-10 29 -9 102 -20 162 -24 155 -12 148 -18 157 166 9 179 49 444 60 398 4 -16
19 -68 32 -115 30 -106 59 -249 74 -359 13 -96 1 -275 -29 -443 -10 -57 -18
-104 -16 -106 1 -1 443 -1 982 0 l980 3 -18 90 c-43 207 -134 422 -246 578
-100 137 -259 285 -376 347 -36 19 -52 37 -80 89 -20 36 -45 101 -57 144 l-21
78 23 28 c13 16 28 36 33 45 9 14 19 14 75 6 36 -6 88 -13 116 -17 l50 -5 72
83 c97 113 96 109 48 334 -47 225 -51 433 -16 805 16 163 13 300 -8 408 -24
118 -64 179 -171 259 -42 32 -78 61 -81 64 -3 3 -23 13 -45 22 -39 15 -39 16
-10 15 17 0 51 2 77 4 26 2 45 1 42 -3 -2 -4 1 -11 7 -14 7 -5 10 0 7 11 -2
13 -15 21 -43 25 l-40 6 40 3 40 3 -40 7 -40 6 40 8 c22 4 45 9 50 11 18 6
-98 4 -177 -3 -76 -7 -78 -7 -114 24 -43 35 -39 54 11 52 19 -1 38 2 42 5 3 4
-16 7 -43 7 -45 0 -50 -2 -52 -24z m-1445 -460 c2 -1 -3 -20 -11 -42 -29 -84
-36 -114 -51 -210 -21 -140 -20 -240 3 -253 9 -6 12 -11 5 -11 -6 0 -15 5 -18
10 -3 6 -23 10 -45 10 -23 0 -40 5 -43 14 -3 8 -6 54 -7 103 -2 123 -2 125 12
117 7 -4 8 -3 4 5 -5 7 -18 11 -29 10 -12 0 -31 -1 -41 0 -18 1 -17 3 4 21 13
11 37 21 54 21 28 2 28 2 6 7 -24 4 -24 5 -5 13 14 7 9 8 -17 4 -33 -5 -38 -3
-38 15 0 14 7 20 21 20 15 0 19 5 15 15 -3 8 -1 15 4 15 6 0 10 -5 10 -11 0
-5 5 -7 11 -4 6 5 4 12 -8 21 -15 11 -15 14 -3 15 26 3 -83 17 -137 18 -40 1
-53 5 -53 16 0 12 16 15 78 16 54 0 71 3 56 9 -28 11 -40 30 -20 30 9 0 15 3
15 8 -1 4 -1 9 0 12 1 5 223 -8 228 -14z m-5 -233 c-17 -15 -19 -25 -13 -63
l8 -45 8 39 8 38 191 -7 c557 -21 1047 -43 1052 -47 3 -3 -6 -22 -20 -42 -28
-41 -41 -109 -33 -162 3 -18 3 -34 -1 -34 -4 0 -286 14 -627 30 -341 16 -621
30 -622 30 -1 0 7 30 18 67 16 57 17 77 9 124 -12 65 -6 89 22 89 20 0 20 0 0
-17z m436 -1600 c23 -24 53 -23 73 2 14 16 22 18 45 10 15 -6 29 -17 32 -25 4
-12 2 -13 -9 -2 -12 11 -59 18 -59 8 0 -7 60 -268 66 -289 5 -14 13 -18 35
-15 20 3 29 0 29 -9 0 -19 -69 -17 -76 2 -8 20 -51 19 -62 -1 -10 -18 -73 -16
-79 3 -3 8 6 10 32 6 27 -4 34 -3 31 8 -6 17 -66 284 -66 293 0 3 -11 6 -25 6
-14 0 -25 -5 -25 -12 0 -6 -3 -9 -6 -5 -4 3 -4 13 -1 22 8 20 43 19 65 -2z"/>
<path d="M2760 3254 c-327 -29 -1006 -84 -1029 -84 l-23 0 4 -150 c2 -82 7
-152 10 -155 3 -3 36 -8 74 -10 40 -3 59 -1 44 3 -21 6 -26 15 -28 50 l-3 42
58 0 c32 1 103 3 158 5 121 5 474 -20 521 -37 37 -13 53 -6 36 15 -7 8 -9 17
-5 20 3 4 -7 7 -23 8 -25 0 -26 2 -9 9 11 5 38 10 60 11 34 1 -173 23 -290 30
-37 2 -36 2 15 9 30 4 102 3 160 -1 58 -4 150 -8 205 -9 55 0 105 -4 111 -8 6
-4 14 -32 17 -62 6 -46 21 -598 20 -681 0 -21 3 -25 18 -22 11 3 19 9 19 13 0
4 12 6 28 4 16 -2 19 -1 7 2 -11 3 -24 10 -29 14 -12 12 -14 280 -2 280 5 0 6
3 2 7 -4 4 -15 8 -23 8 -26 0 -26 23 -1 28 l23 4 -23 2 c-33 2 -22 24 13 28
37 5 46 13 16 13 -12 0 -19 4 -16 10 3 6 2 10 -4 10 -5 0 -12 -6 -14 -12 -3
-8 -6 -6 -6 5 -1 9 3 17 9 17 5 0 9 39 9 89 0 69 -3 91 -15 95 -7 3 -14 11
-14 17 0 8 4 8 15 -1 9 -7 19 -9 23 -5 4 4 1 10 -5 12 -7 3 -13 14 -13 24 0
11 4 18 9 14 5 -3 13 -1 16 5 4 6 3 10 -2 9 -4 -1 -16 -1 -26 0 -31 2 -13 26
24 32 l34 6 -37 2 c-45 1 -56 31 -12 31 14 0 23 4 19 10 -3 6 -16 10 -28 10
-20 0 -20 0 -2 14 11 8 24 12 30 9 7 -4 7 -3 0 4 -5 6 -110 16 -232 23 -143 8
-220 16 -216 23 6 10 86 7 362 -13 73 -5 140 -6 149 -1 11 6 9 10 -12 15 -27
7 -34 20 -16 31 8 5 7 11 -1 21 -8 10 -8 14 0 14 6 0 11 18 11 45 0 43 1 45
30 45 17 0 30 3 30 8 0 11 -63 10 -230 -4z"/>
<path d="M2377 2618 c4 -167 8 -375 8 -462 l0 -159 -54 -13 c-30 -6 -98 -18
-150 -25 -53 -7 -98 -16 -101 -20 -3 -4 -26 -10 -52 -14 -35 -5 -48 -4 -48 5
0 7 7 10 15 6 24 -9 17 2 -12 19 -16 9 -20 14 -10 11 9 -3 17 -1 17 5 0 6 6 7
13 3 7 -4 8 -3 4 2 -5 5 -20 9 -34 9 -39 0 -40 34 -2 42 29 5 40 22 17 24 -7
1 -2 5 12 9 21 7 18 8 -15 7 -27 -1 -39 2 -38 11 2 6 -5 13 -15 13 -9 1 6 7
33 14 28 7 43 14 34 14 -14 1 -17 31 -22 235 -4 128 -9 242 -13 252 -3 12 -3
14 3 8 6 -9 11 -8 21 2 11 12 9 14 -9 14 -12 0 -27 -7 -33 -15 -9 -13 -11 -10
-11 17 0 27 5 35 30 45 23 9 26 12 10 13 l-20 1 20 9 c19 8 19 9 -2 9 -12 1
-23 -5 -26 -11 -2 -7 -6 2 -9 20 -4 26 -1 32 14 32 28 0 18 33 -12 41 l-25 7
27 1 c56 2 35 19 -30 24 -171 15 -190 16 -142 8 l45 -8 -47 -1 -48 -2 0 -57
c0 -32 5 -186 10 -343 5 -157 10 -349 11 -428 1 -78 5 -145 9 -147 6 -4 366
73 990 211 85 19 179 40 208 46 28 6 52 14 52 18 0 4 -17 4 -37 -1 -21 -5 -49
-9 -62 -9 -20 0 -21 2 -11 15 10 12 10 15 -1 16 -8 0 -5 4 6 9 14 6 15 9 5 10
-12 0 -11 4 4 15 19 15 19 15 -1 15 -12 0 -25 -5 -29 -11 -4 -8 -9 -7 -16 2
-5 9 -8 -4 -6 -36 l3 -50 -145 -26 c-80 -15 -148 -25 -152 -23 -3 2 -8 0 -10
-4 -1 -5 -15 -12 -30 -16 -23 -5 -28 -3 -28 13 0 11 6 22 13 25 6 4 2 4 -10 2
-13 -2 -23 -2 -23 0 0 3 10 9 23 15 17 7 11 8 -25 4 -43 -4 -48 -2 -48 15 0
15 11 22 45 31 30 8 45 17 45 28 0 14 -2 14 -10 1 -8 -12 -10 -12 -10 -1 0 10
-9 12 -35 7 -31 -6 -35 -4 -35 13 0 15 9 22 38 27 50 9 76 23 42 24 -20 0 -22
2 -10 10 12 8 12 10 -5 10 -16 0 -17 2 -6 9 12 8 13 44 7 217 -5 144 -11 211
-19 216 -8 5 -7 8 5 8 12 0 15 5 11 16 -4 11 -16 14 -42 12 -30 -2 -36 0 -36
17 0 16 11 22 55 31 31 7 44 12 30 13 l-25 2 24 13 c21 11 17 12 -33 8 -52 -4
-56 -3 -56 17 0 17 6 21 34 21 34 0 56 23 33 34 -9 5 -9 7 1 12 25 12 0 24
-49 24 l-50 0 8 -302z"/>
<path d="M1000 2615 c-47 -7 -272 -38 -500 -69 -228 -31 -425 -59 -438 -62
-21 -4 -23 -8 -16 -52 13 -93 83 -350 129 -473 64 -172 180 -409 199 -409 21
0 819 231 829 240 4 4 -12 188 -37 408 -25 221 -46 408 -46 417 0 17 -4 17
-120 0z"/>
<path d="M2980 2003 c-33 -5 -84 -16 -572 -128 -229 -52 -424 -95 -432 -95 -9
0 -16 -4 -16 -9 0 -4 37 -12 83 -15 156 -14 472 -56 530 -71 59 -15 110 -38
137 -60 21 -17 84 0 76 21 -3 7 0 14 7 15 7 1 1 5 -13 9 -17 5 -19 8 -7 9 9 1
17 8 17 17 0 12 -4 14 -12 7 -7 -6 -26 -13 -43 -17 -38 -7 -484 75 -458 85 33
14 83 9 255 -22 93 -16 173 -28 176 -25 3 3 -4 6 -16 6 -11 0 -24 5 -27 10 -4
6 -10 8 -15 5 -5 -3 -42 2 -82 11 -67 14 -95 19 -124 23 -7 0 -14 10 -17 20
-4 17 4 20 74 31 73 10 91 9 237 -19 170 -32 274 -47 232 -32 -17 6 -20 9 -7
10 14 1 17 10 15 49 l-1 47 -7 -45 c-6 -35 -7 -25 -6 42 1 48 4 84 7 80 3 -4
11 -49 17 -101 6 -52 15 -97 19 -100 4 -3 9 -80 9 -171 3 -257 15 -530 25
-530 5 0 7 6 4 13 -5 15 -17 441 -16 602 0 66 -4 114 -8 106 -6 -9 -10 -7 -14
11 -7 27 -20 165 -18 175 2 4 -6 11 -16 15 -12 6 -8 7 15 5 22 -2 32 1 32 10
0 7 -3 12 -7 12 -5 -1 -19 -3 -33 -6z"/>
<path d="M1102 1554 l3 -59 -280 -106 c-154 -59 -279 -110 -277 -115 1 -5 16
-28 33 -51 l30 -42 62 23 c34 13 76 30 92 36 17 7 35 14 41 16 7 1 92 32 189
68 98 37 183 66 189 64 6 -2 129 -67 273 -146 145 -79 266 -141 271 -138 4 2
9 -9 10 -27 2 -17 5 -33 7 -36 4 -3 -591 -278 -659 -304 -16 -6 -14 -11 20
-38 22 -17 66 -49 98 -72 53 -36 61 -38 80 -27 12 8 41 25 66 38 108 58 241
136 247 145 3 5 -4 6 -18 2 -13 -4 -27 -13 -31 -19 -4 -6 -11 -7 -15 -2 -14
14 30 38 60 32 20 -4 44 3 79 22 28 15 73 39 99 53 27 14 46 29 42 32 -3 4 1
7 10 7 10 0 55 21 102 46 93 50 104 74 34 74 -32 0 -39 -3 -39 -20 0 -16 -6
-19 -37 -17 -37 2 -38 1 -38 -32 0 -30 -5 -36 -33 -45 -18 -7 -30 -15 -25 -20
4 -5 1 -6 -7 -4 -8 3 -14 9 -13 14 0 5 -20 10 -45 10 -26 1 -39 -1 -29 -3 21
-5 23 -23 2 -23 -8 0 -15 -5 -15 -10 0 -7 6 -7 19 0 25 13 61 13 61 0 0 -5
-11 -10 -23 -10 -13 0 -32 -9 -42 -20 -10 -12 -25 -18 -32 -15 -9 3 -11 0 -7
-6 4 -7 -1 -9 -15 -4 -17 5 -20 3 -14 -12 5 -15 3 -16 -8 -5 -30 28 -105 -2
-96 -40 4 -15 1 -18 -13 -13 -20 6 -70 -13 -70 -27 0 -5 10 -2 22 6 12 9 29
16 38 15 13 0 13 -1 0 -6 -8 -3 -22 -12 -31 -20 -15 -12 -22 -12 -54 1 -47 20
-55 20 -55 1 0 -8 4 -15 10 -15 5 0 14 -9 21 -21 10 -19 9 -20 -11 -14 -16 5
-20 4 -15 -5 6 -9 3 -9 -13 -1 -29 16 -37 14 -21 -5 12 -15 11 -16 -9 -10 -16
5 -29 2 -42 -9 -18 -16 -20 -16 -42 0 l-23 17 22 -7 c14 -4 31 0 43 8 20 14
20 15 -6 15 -18 0 -22 -3 -13 -9 22 -14 -5 -11 -56 6 -25 9 -49 14 -54 11 -5
-3 -15 2 -22 11 -12 14 -11 15 9 9 32 -11 61 1 59 24 -1 21 -21 27 -32 10 -3
-5 1 -10 10 -10 9 0 13 -4 10 -10 -3 -5 -15 -10 -26 -10 -12 0 -17 4 -13 11 5
8 1 8 -13 0 -11 -6 -23 -8 -26 -4 -10 9 94 55 110 48 8 -2 11 0 8 5 -4 6 5 10
20 10 14 0 24 4 21 8 -6 10 56 40 72 34 22 -7 12 -23 -10 -17 -18 5 -19 4 -8
-4 8 -5 11 -13 7 -18 -5 -4 -12 -1 -17 7 -7 12 -12 12 -22 2 -9 -9 -8 -12 8
-12 16 0 17 -2 4 -10 -9 -6 -10 -10 -3 -10 7 0 24 11 40 24 23 20 25 26 15 39
-10 12 -9 16 4 21 9 3 21 3 26 -1 6 -3 8 -2 5 4 -7 11 57 33 94 33 22 -1 22
-2 6 -11 -10 -6 -24 -8 -32 -5 -7 2 -18 -1 -23 -7 -8 -9 1 -12 36 -13 26 0 38
2 28 4 -18 4 -18 5 5 18 14 8 18 13 9 14 -13 0 -13 1 0 10 11 8 7 9 -15 5 -22
-5 -17 0 20 18 28 13 57 21 65 17 8 -3 33 -6 54 -6 33 1 40 5 43 25 3 21 1 22
-13 10 -17 -14 -64 -21 -64 -9 0 12 122 61 140 55 17 -6 19 -2 15 47 -2 29 -2
47 1 41 4 -9 31 -13 85 -13 71 0 79 -2 79 -19 0 -15 9 -20 45 -23 25 -2 52 2
62 9 24 18 38 16 19 -2 -8 -8 -19 -15 -25 -15 -6 0 -11 -4 -11 -10 0 -5 2 -10
4 -10 5 0 244 129 386 208 106 60 169 94 233 128 37 20 66 38 65 39 -2 2 -91
15 -198 30 -350 48 -1334 186 -1368 192 l-33 5 3 -58z"/>
</g>
</svg>
