<?xml version="1.0" standalone="no"?>
<!DOCTYPE svg PUBLIC "-//W3C//DTD SVG 20010904//EN"
 "http://www.w3.org/TR/2001/REC-SVG-20010904/DTD/svg10.dtd">
<svg version="1.0" xmlns="http://www.w3.org/2000/svg"
 width="450.000000pt" height="450.000000pt" viewBox="0 0 450.000000 450.000000"
 preserveAspectRatio="xMidYMid meet">
<metadata>
Created by potrace 1.16, written by Peter Selinger 2001-2019
</metadata>
<g transform="translate(0.000000,450.000000) scale(0.100000,-0.100000)"
fill="#000000" stroke="none">
<path d="M1378 3486 c-26 -8 -63 -24 -83 -36 -37 -23 -95 -93 -95 -114 0 -7
-16 -18 -35 -25 -44 -16 -102 -83 -116 -135 -7 -25 -8 -70 -4 -116 4 -41 6
-101 6 -132 -2 -81 28 -129 90 -143 22 -5 29 -15 39 -53 17 -69 54 -127 105
-163 39 -28 45 -37 45 -69 0 -52 -22 -67 -105 -73 -107 -7 -176 -38 -251 -112
l-64 -63 0 312 c0 294 1 313 20 344 11 18 36 42 55 53 37 22 46 53 18 63 -26
10 -94 -43 -123 -94 l-25 -45 0 -865 0 -865 28 -47 c29 -51 63 -78 116 -96 25
-9 359 -12 1255 -12 1163 0 1223 1 1261 19 49 22 93 65 111 108 12 26 14 190
14 895 0 855 0 862 -21 905 -13 27 -39 56 -67 76 l-47 32 -791 3 c-728 2 -792
1 -798 -14 -10 -27 13 -44 60 -44 l44 0 0 -366 0 -367 -40 45 c-75 86 -189
138 -301 138 -58 0 -79 18 -79 69 0 33 5 41 45 70 49 35 105 120 105 161 0 34
9 45 48 58 63 21 80 54 83 153 6 255 6 258 -34 340 -44 91 -121 168 -194 194
-64 22 -214 28 -275 11z m278 -73 c51 -27 105 -87 141 -155 22 -44 27 -69 31
-150 5 -108 8 -103 -62 -91 -31 5 -41 12 -52 39 -8 18 -14 47 -14 63 0 16 -5
33 -10 36 -6 3 -42 -1 -80 -11 -89 -21 -196 -15 -268 16 -59 26 -82 21 -82
-15 0 -34 -23 -86 -46 -107 -11 -9 -41 -19 -68 -23 l-48 -8 3 86 c5 101 20
128 92 167 35 18 53 37 68 68 41 82 112 113 254 109 79 -2 109 -8 141 -24z
m-295 -319 c47 -16 177 -22 245 -10 41 7 42 7 48 -27 4 -19 15 -46 26 -60 17
-22 20 -41 20 -134 0 -59 -5 -125 -10 -145 -14 -49 -52 -93 -104 -121 -57 -30
-183 -30 -241 0 -92 48 -115 100 -115 259 0 114 1 117 29 150 16 18 35 49 42
68 7 20 14 36 15 36 1 0 21 -7 45 -16z m2149 -132 c19 -9 43 -33 55 -52 19
-34 20 -50 20 -535 l0 -500 -680 -5 c-638 -5 -680 -6 -683 -23 -2 -9 2 -19 10
-22 7 -3 315 -6 683 -7 l670 -3 0 -325 c0 -320 0 -326 -23 -361 -45 -74 49
-69 -1311 -69 -1353 0 -1267 -4 -1315 66 l-26 39 0 327 0 328 583 2 582 3 3
578 2 577 698 0 c644 0 700 -1 732 -18z m-1960 -481 c0 -43 39 -101 67 -101
21 0 14 -15 -74 -158 -66 -106 -78 -120 -88 -105 -44 66 -157 254 -154 256 2
2 17 11 32 21 33 20 58 73 50 104 -5 21 -3 22 81 22 l86 0 0 -39z m-261 -213
c36 -57 82 -130 104 -162 36 -56 38 -64 40 -142 l2 -83 -30 -3 c-16 -2 -135
-2 -264 0 l-233 3 4 112 c8 197 65 291 215 353 90 37 90 37 162 -78z m539 70
c54 -26 122 -90 148 -139 30 -59 44 -131 44 -229 l0 -95 -260 3 -260 3 0 78 0
79 88 143 c48 79 95 154 103 167 12 20 20 23 52 18 21 -4 59 -16 85 -28z"/>
<path d="M2375 2880 c-5 -7 -10 -157 -13 -332 -4 -250 -2 -324 8 -343 10 -19
16 -22 26 -14 32 27 240 -18 358 -77 l50 -24 -252 0 -252 0 0 321 c0 202 -4
327 -10 340 -6 10 -19 19 -29 19 -17 0 -19 -14 -26 -197 -10 -263 -2 -533 16
-544 8 -5 274 -8 591 -8 507 0 579 1 593 15 13 13 15 62 15 354 0 186 -3 345
-6 354 -8 22 -41 20 -53 -2 -6 -11 -9 -143 -8 -335 l2 -317 -254 0 -255 0 50
24 c112 54 333 105 342 78 2 -8 10 -7 28 4 l24 16 -1 252 c-1 138 -4 289 -7
336 l-7 85 -90 -1 c-107 -1 -220 -30 -312 -78 l-63 -34 -62 33 c-85 46 -195
75 -304 82 -69 4 -93 3 -99 -7z m253 -75 c31 -9 85 -30 120 -47 l62 -31 0
-284 0 -283 -37 16 c-91 39 -173 64 -255 75 l-88 12 0 287 0 286 71 -7 c38 -5
96 -15 127 -24z m632 -261 l0 -284 -24 0 c-58 0 -206 -33 -270 -61 -39 -17
-77 -33 -83 -36 -10 -4 -13 56 -13 280 l0 284 78 36 c42 19 97 40 122 47 50
13 171 28 183 22 4 -2 7 -131 7 -288z"/>
<path d="M1194 1545 c-3 -8 -3 -19 1 -25 9 -15 2007 -14 2022 1 6 6 9 18 6 25
-8 21 -2021 21 -2029 -1z"/>
<path d="M1194 1355 c-4 -8 -1 -22 6 -30 11 -13 107 -15 725 -15 621 0 714 2
725 15 10 12 10 18 0 30 -11 13 -105 15 -732 15 -632 0 -719 -2 -724 -15z"/>
</g>
</svg>
